<svg width="125" height="22" viewBox="0 0 125 22" fill="none" xmlns="http://www.w3.org/2000/svg">
<path d="M5.89481 15H2.76681L0.726813 5.52H3.13481L4.31081 12.448C4.32148 12.5067 4.32948 12.568 4.33481 12.632C4.34015 12.6907 4.34548 12.7493 4.35081 12.808L4.35881 13.64H4.51081L4.52681 12.808C4.53215 12.7547 4.54015 12.696 4.55081 12.632C4.56148 12.568 4.57215 12.5093 4.58281 12.456L6.27881 5.52H8.62281L10.3108 12.456C10.3215 12.5093 10.3321 12.568 10.3428 12.632C10.3535 12.696 10.3615 12.7547 10.3668 12.808L10.3748 13.624H10.5268V12.816C10.5321 12.7573 10.5375 12.6987 10.5428 12.64C10.5481 12.576 10.5561 12.5147 10.5668 12.456L11.7028 5.52H14.1028L12.0788 15H8.97481L7.58281 8.808C7.57215 8.75467 7.56148 8.696 7.55081 8.632C7.54015 8.568 7.53215 8.50667 7.52681 8.448L7.50281 7.336H7.35081L7.32681 8.448C7.32148 8.50133 7.31348 8.56 7.30281 8.624C7.29215 8.688 7.28148 8.74667 7.27081 8.8L5.89481 15ZM16.7878 13.336H16.9318L18.8998 5.52H21.3318L18.6438 15C18.1425 16.5467 17.5131 17.528 16.7558 17.944C16.0038 18.36 14.7425 18.568 12.9718 18.568V16.864C14.0011 16.864 14.7825 16.752 15.3158 16.528C15.8491 16.3093 16.2411 15.8 16.4918 15H15.4678L12.7478 5.52H15.1798L16.8918 12.096C16.9025 12.1493 16.9105 12.208 16.9158 12.272C16.9211 12.3307 16.9238 12.3867 16.9238 12.44L16.7878 13.336Z" fill="#343741"/>
<path d="M29.2044 2.44H31.5324V15H29.2044V14.32C29.2044 14.2827 29.2151 14.2427 29.2364 14.2L29.7164 13.672L29.6124 13.552C29.4258 13.808 29.1644 14.056 28.8284 14.296C28.1084 14.808 27.2311 15.064 26.1964 15.064C26.1538 15.064 26.1111 15.064 26.0684 15.064C24.9164 15.0267 24.0551 14.5973 23.4844 13.776C22.9138 12.9493 22.6284 11.7707 22.6284 10.24C22.6284 8.704 22.9138 7.53067 23.4844 6.72C24.0551 5.90933 24.9164 5.48267 26.0684 5.44C26.1378 5.44 26.2071 5.44 26.2764 5.44C27.2738 5.44 28.1244 5.69333 28.8284 6.2C29.1644 6.44 29.4258 6.69067 29.6124 6.952L29.7244 6.816L29.2364 6.256C29.2151 6.224 29.2044 6.18667 29.2044 6.144V2.44ZM26.9964 13.464C27.5991 13.464 28.1191 13.3093 28.5564 13C28.9564 12.712 29.1724 12.2373 29.2044 11.576V8.928C29.1724 8.26133 28.9564 7.78667 28.5564 7.504C28.1191 7.19467 27.5991 7.04 26.9964 7.04C26.3564 7.04 25.8578 7.224 25.5004 7.592C25.1484 7.96 24.9724 8.84533 24.9724 10.248C24.9724 11.6613 25.1484 12.552 25.5004 12.92C25.8578 13.2827 26.3564 13.464 26.9964 13.464ZM36.8508 13.576C37.3148 13.576 37.6828 13.5307 37.9548 13.44C38.2321 13.344 38.4615 13.136 38.6428 12.816C38.8295 12.4907 38.9628 12.1173 39.0428 11.696H41.3628C41.2828 12.5493 41.0188 13.224 40.5708 13.72C40.1228 14.216 39.6028 14.568 39.0108 14.776C38.4135 14.984 37.6935 15.088 36.8508 15.088C35.4001 15.088 34.2695 14.6827 33.4588 13.872C32.6481 13.0613 32.2428 11.856 32.2428 10.256C32.2428 8.59733 32.6481 7.37867 33.4588 6.6C34.2695 5.816 35.3868 5.424 36.8108 5.424C38.2828 5.424 39.4081 5.81867 40.1868 6.608C40.9655 7.39733 41.3548 8.60533 41.3548 10.232L41.3388 10.864L34.5068 10.872C34.5601 11.9227 34.7441 12.6213 35.0588 12.968C35.4375 13.3733 36.0348 13.576 36.8508 13.576ZM39.0348 9.576C39.0295 8.50933 38.8455 7.80267 38.4828 7.456C38.1255 7.104 37.5708 6.928 36.8188 6.928C36.0348 6.928 35.4508 7.12 35.0668 7.504C34.7521 7.81867 34.5681 8.50933 34.5148 9.576H39.0348Z" fill="#343741"/>
<path d="M45.0375 13.192V15H42.8535V13.192H45.0375Z" fill="#343741"/>
<path d="M54.7317 13.2627C56.1772 13.2627 56.7897 12.442 56.9367 11.4375H58.4189C58.2229 13.226 57.0837 14.5735 54.6949 14.5735C52.4287 14.5735 50.8117 12.9197 50.8117 10.2982C50.8117 7.7135 52.4532 6.01075 54.6949 6.01075C57.0469 6.01075 58.2352 7.35825 58.4189 9.17125H56.9367C56.7897 8.1545 56.1404 7.3215 54.7317 7.3215C53.3719 7.3215 52.3184 8.46075 52.3184 10.2982C52.3307 12.1725 53.3597 13.2627 54.7317 13.2627ZM61.6246 13.2382L61.7226 14.451C61.4899 14.5123 61.2326 14.5613 60.9019 14.5613C60.0076 14.5613 59.5299 14.01 59.5299 13.0545V5.8025H61.0121V12.932C61.0121 13.1647 61.1469 13.2995 61.3306 13.2995C61.4286 13.2995 61.4899 13.2872 61.6246 13.2382ZM65.4358 8.43625C67.2733 8.43625 68.4861 9.66125 68.4861 11.4865C68.4861 13.2872 67.2733 14.5613 65.4358 14.5613C63.6106 14.5613 62.3856 13.3485 62.3856 11.5477C62.3856 9.73475 63.6106 8.43625 65.4358 8.43625ZM65.4358 9.6735C64.5048 9.6735 63.9046 10.4207 63.9046 11.511C63.9046 12.589 64.5048 13.324 65.4358 13.324C66.3791 13.324 66.9671 12.589 66.9671 11.511C66.9671 10.4207 66.3791 9.6735 65.4358 9.6735ZM73.4563 8.4975H74.9508V14.5H73.5176L73.4686 13.6302C73.1133 14.1815 72.5131 14.5613 71.6801 14.5613C70.3203 14.5613 69.5976 13.6425 69.5976 12.3807V8.4975H71.0921V12.0622C71.0921 12.8095 71.4841 13.275 72.2313 13.275C72.9296 13.275 73.4563 12.736 73.4563 11.903V8.4975ZM80.6837 5.8025H82.1782V14.5H80.7327L80.696 13.5935C80.3407 14.1447 79.6915 14.5613 78.7727 14.5613C77.217 14.5613 76.1267 13.4342 76.1267 11.5722C76.1267 9.73475 77.1925 8.43625 78.8585 8.43625C79.765 8.43625 80.353 8.80375 80.6837 9.34275V5.8025ZM79.1035 13.2995C80.157 13.2995 80.6837 12.4175 80.6837 11.6825V11.3272C80.6837 10.5555 80.1447 9.698 79.1157 9.698C78.2337 9.698 77.6335 10.433 77.6335 11.5355C77.6335 12.6135 78.2092 13.2995 79.1035 13.2995ZM90.9301 12.8217C90.9423 13.8997 89.9746 14.5613 88.3821 14.5613C86.7161 14.5613 85.8953 13.8752 85.8831 12.6625L87.1816 12.6747C87.2183 13.1892 87.5613 13.471 88.3821 13.471C89.1538 13.471 89.4846 13.2382 89.4846 12.8585C89.4846 11.6457 86.0178 12.589 86.0178 10.188C86.0178 9.11 86.9611 8.43625 88.4923 8.43625C89.9991 8.43625 90.8198 9.12225 90.8443 10.3105H89.5336C89.4968 9.78375 89.1171 9.5265 88.4801 9.5265C87.7818 9.5265 87.4633 9.7715 87.4633 10.1512C87.4633 11.3395 90.9301 10.3472 90.9301 12.8217ZM97.5429 11.5355V11.8417H93.2432C93.3534 12.8217 93.9292 13.373 94.7867 13.373C95.6809 13.373 96.0117 12.9075 96.1097 12.54H97.5184C97.3102 13.5935 96.4772 14.5613 94.7254 14.5613C92.8879 14.5613 91.7732 13.2872 91.7732 11.511C91.7732 9.698 93.0227 8.43625 94.7377 8.43625C96.5139 8.43625 97.5429 9.66125 97.5429 11.5355ZM94.7499 9.58775C94.0027 9.58775 93.4269 10.041 93.2677 10.923H96.1219C95.9994 10.0042 95.4972 9.58775 94.7499 9.58775ZM101.737 8.43625C101.884 8.43625 102.031 8.46075 102.104 8.473L102.092 9.943C102.006 9.90625 101.908 9.88175 101.676 9.88175C100.941 9.88175 100.316 10.384 100.218 11.2905V14.5H98.7234V8.4975H100.157L100.181 9.46525C100.475 8.865 100.965 8.43625 101.737 8.43625ZM106.99 8.4975H108.497L106.268 14.5H104.614L102.372 8.4975H103.989L105.3 12.3807C105.361 12.5645 105.41 12.7727 105.471 13.0545H105.508C105.557 12.7727 105.606 12.5645 105.667 12.3807L106.99 8.4975ZM111.093 6.54975C111.093 7.11325 110.665 7.50525 110.113 7.50525C109.562 7.50525 109.133 7.11325 109.133 6.54975C109.133 6.01075 109.562 5.6065 110.113 5.6065C110.665 5.6065 111.093 6.01075 111.093 6.54975ZM109.354 14.5V8.4975H110.848V14.5H109.354ZM114.933 14.5613C113.12 14.5613 112.017 13.2995 112.017 11.5232C112.017 9.71025 113.242 8.43625 114.97 8.43625C116.685 8.43625 117.567 9.453 117.714 10.8005H116.244C116.133 10.1757 115.766 9.6735 115.006 9.6735C114.124 9.6735 113.536 10.3472 113.536 11.4987C113.536 12.6502 114.088 13.324 114.994 13.324C115.79 13.324 116.133 12.834 116.244 12.2337H117.714C117.554 13.5445 116.66 14.5613 114.933 14.5613ZM124.251 11.5355V11.8417H119.951C120.061 12.8217 120.637 13.373 121.495 13.373C122.389 13.373 122.72 12.9075 122.818 12.54H124.226C124.018 13.5935 123.185 14.5613 121.433 14.5613C119.596 14.5613 118.481 13.2872 118.481 11.511C118.481 9.698 119.731 8.43625 121.446 8.43625C123.222 8.43625 124.251 9.66125 124.251 11.5355ZM121.458 9.58775C120.711 9.58775 120.135 10.041 119.976 10.923H122.83C122.707 10.0042 122.205 9.58775 121.458 9.58775Z" fill="#343741"/>
</svg>
