<svg width="55" height="52" viewBox="0 0 55 52" fill="none" xmlns="http://www.w3.org/2000/svg">
<path d="M2.86499 26C2.86499 19.9702 7.39478 14.9423 13.4135 13.7899C14.638 7.48493 20.4784 2.70837 27.5004 2.70837C35.2595 2.70837 41.5776 8.54155 41.8163 15.8226C47.6503 16.6083 52.1358 21.3506 52.1358 27.0834C52.1358 33.3656 46.7493 38.4584 40.1046 38.4584H16.0421C8.76458 38.4584 2.86499 32.8806 2.86499 26Z" fill="#141B34"/>
<path d="M27.5004 35.2084C28.4497 35.2084 29.2192 35.9359 29.2192 36.8334V40.625H29.7921C31.6088 40.625 33.1434 41.7671 33.6364 43.3334H43.5421C44.4913 43.3334 45.2608 44.0609 45.2608 44.9584C45.2608 45.8559 44.4913 46.5834 43.5421 46.5834H33.6364C33.1434 48.1496 31.6088 49.2917 29.7921 49.2917H25.2087C23.392 49.2917 21.8574 48.1496 21.3644 46.5834H11.4587C10.5095 46.5834 9.73999 45.8559 9.73999 44.9584C9.73999 44.0609 10.5095 43.3334 11.4587 43.3334H21.3644C21.8574 41.7671 23.392 40.625 25.2087 40.625H25.7817V36.8334C25.7817 35.9359 26.5511 35.2084 27.5004 35.2084Z" fill="#141B34"/>
<path d="M21.6465 28.8257H17.562L15.2778 19.2623H18.433L19.6129 25.9385C19.6231 25.9916 19.6334 26.0509 19.6334 26.1165C19.6334 26.182 19.6402 26.2413 19.6471 26.3006V27.2121H19.8495L19.8597 26.3006C19.8666 26.2413 19.8735 26.1789 19.8838 26.1165C19.8941 26.0509 19.9043 25.9916 19.9146 25.9385L21.7049 19.2623H24.7537L26.5062 25.9385C26.5165 25.9916 26.5302 26.0509 26.5405 26.1165C26.5508 26.182 26.5611 26.2413 26.568 26.3006V27.1964H26.7703V26.3006C26.7772 26.2413 26.7806 26.1789 26.7875 26.1165C26.7943 26.0509 26.7978 25.9916 26.8046 25.9385L27.9295 19.2623H31.0744L28.7971 28.8257H24.7469L23.3648 23.1014C23.3545 23.0421 23.3407 22.9828 23.3304 22.9203C23.3202 22.8579 23.3133 22.7986 23.3133 22.7393L23.2961 21.4347H23.0938L23.0766 22.7393C23.0698 22.7924 23.063 22.8517 23.0561 22.9173C23.0458 22.9828 23.0355 23.0421 23.0252 23.0951L21.6533 28.8288L21.6465 28.8257Z" fill="#F5F7FA"/>
<path d="M32.6278 26.85H32.8129L34.8158 19.2624H38.0053L35.073 28.8258C34.4935 30.4051 33.7595 31.3976 32.8713 31.7972C31.983 32.1967 30.4329 32.3964 28.2242 32.3964V30.3802C29.4588 30.3802 30.378 30.2927 30.9782 30.1211C31.5749 29.9494 31.9967 29.5156 32.2437 28.8227H30.8959L27.9189 19.2593H31.1084L32.7821 25.4518C32.7924 25.5049 32.8026 25.5641 32.8096 25.6297C32.8164 25.6952 32.8164 25.7546 32.8096 25.8076L32.6243 26.8469L32.6278 26.85Z" fill="#F5F7FA"/>
<path d="M40.7404 26.8092V28.8256H37.8801V26.8092H40.7404Z" fill="#F5F7FA"/>
</svg>
